<?xml version="1.0" encoding="utf-8"?>
<!-- Generator: Adobe Illustrator 16.0.4, SVG Export Plug-In . SVG Version: 6.00 Build 0)  -->
<!DOCTYPE svg PUBLIC "-//W3C//DTD SVG 1.1//EN" "http://www.w3.org/Graphics/SVG/1.1/DTD/svg11.dtd">
<svg version="1.1"
	 id="svg2" xmlns:dc="http://purl.org/dc/elements/1.1/" xmlns:cc="http://creativecommons.org/ns#" xmlns:rdf="http://www.w3.org/1999/02/22-rdf-syntax-ns#" xmlns:svg="http://www.w3.org/2000/svg" xmlns:sodipodi="http://sodipodi.sourceforge.net/DTD/sodipodi-0.dtd" xmlns:inkscape="http://www.inkscape.org/namespaces/inkscape" inkscape:version="0.48.0 r9654" sodipodi:docname="import_config_obj.svg"
	 xmlns="http://www.w3.org/2000/svg" xmlns:xlink="http://www.w3.org/1999/xlink" x="0px" y="0px" width="16px" height="16px"
	 viewBox="0 0 16 16" enable-background="new 0 0 16 16" xml:space="preserve">
<filter  width="1.48" height="1.48" id="filter20746" y="-0.24" x="-0.24" inkscape:collect="always">
	<feGaussianBlur  stdDeviation="1.3238898" id="feGaussianBlur20748" inkscape:collect="always"></feGaussianBlur>
</filter>
<sodipodi:namedview  inkscape:document-units="px" inkscape:pageopacity="0.0" inkscape:current-layer="layer1" inkscape:pageshadow="2" inkscape:window-width="1147" inkscape:window-height="752" inkscape:window-x="1198" id="base" pagecolor="#ffffff" bordercolor="#666666" borderopacity="1.0" inkscape:zoom="11.313709" inkscape:cx="6.0422389" inkscape:cy="1.3749919" showgrid="true" showguides="true" inkscape:window-maximized="0" inkscape:window-y="809" inkscape:guide-bbox="true" inkscape:snap-global="false">
	<inkscape:grid  type="xygrid" id="grid17599"></inkscape:grid>
</sodipodi:namedview>
<g id="g17594" transform="matrix(1.2065384,0,0,1.2065384,1.2248827,-221.37405)">
	
		<path id="path6139" sodipodi:ry="4.3089318" sodipodi:rx="4.3089318" sodipodi:cx="-6.7838054" sodipodi:type="arc" sodipodi:cy="9.7465248" fill="#FFFFFF" stroke="#3784BE" stroke-width="0.5" d="
		M9.531,188.038c0,2.38-1.93,4.309-4.309,4.309c-2.38,0-4.309-1.929-4.309-4.309c0-2.38,1.929-4.309,4.309-4.309
		C7.602,183.729,9.531,185.658,9.531,188.038z"/>
	
		<linearGradient id="path6139-5_1_" gradientUnits="userSpaceOnUse" x1="202.0459" y1="-80.9157" x2="211.1704" y2="-80.9157" gradientTransform="matrix(1.2467 0 0 -1.2467 -251.3931 87.1196)">
		<stop  offset="0" style="stop-color:#4177AF"/>
		<stop  offset="0.5975" style="stop-color:#14518F"/>
		<stop  offset="1" style="stop-color:#6EA2D8"/>
	</linearGradient>
	
		<path id="path6139-5" inkscape:connector-curvature="0" sodipodi:nodetypes="scccccscccccccccccccccsccccccccccscccccccccccccccccsccc" fill="url(#path6139-5_1_)" d="
		M5.217,183.543c-0.436,0-0.861,0.077-1.259,0.194l0.516,0.678l0.84,1.065l0.807-1.065l0.516-0.614
		C6.192,183.651,5.714,183.543,5.217,183.543z M3.021,184.157c-0.747,0.427-1.348,1.042-1.744,1.809l0.678,0.097l1.324,0.161
		L3.118,184.9L3.021,184.157L3.021,184.157z M7.412,184.157l-0.096,0.743l-0.161,1.324l1.356-0.162l0.646-0.064
		C8.761,185.22,8.168,184.589,7.412,184.157L7.412,184.157z M0.954,186.74c-0.117,0.399-0.194,0.824-0.194,1.259
		c0,0.45,0.102,0.882,0.226,1.292l0.549-0.452l1.066-0.807l-1.066-0.839L0.954,186.74z M9.479,186.772l-0.549,0.42l-1.066,0.84
		l1.066,0.807l0.516,0.42c0.118-0.401,0.226-0.82,0.226-1.259C9.673,187.573,9.591,187.161,9.479,186.772z M3.279,189.84
		l-1.324,0.161l-0.646,0.064c0.396,0.749,0.977,1.356,1.711,1.776l0.097-0.678L3.279,189.84L3.279,189.84z M7.155,189.84
		l0.161,1.323l0.096,0.678c0.735-0.419,1.316-1.026,1.712-1.776l-0.614-0.064C8.058,189.948,7.605,189.894,7.155,189.84
		L7.155,189.84z M5.314,190.582l-0.84,1.034l-0.484,0.646c0.39,0.111,0.802,0.193,1.227,0.193c0.483,0,0.954-0.084,1.389-0.226
		l-0.484-0.614L5.314,190.582z"/>
	
		<path id="rect9436" inkscape:connector-curvature="0" sodipodi:nodetypes="ccccccscccs" fill="#FFFFD5" stroke="#384E6E" stroke-width="0.5" d="
		M0.525,184.013l3.793,5.226c0,0,1.217,0.467,1.684,0l0.193-0.193c0.467-0.467,0-1.684,0-1.684L0.525,184.013z M4.581,187.537
		c0.377-0.377,0.992-0.377,1.368,0c0.377,0.376,0.377,0.992,0,1.368c-0.377,0.377-0.992,0.377-1.368,0
		C4.204,188.528,4.204,187.913,4.581,187.537z"/>
</g>
<defs>
	<filter id="Adobe_OpacityMaskFilter" filterUnits="userSpaceOnUse">
		<feColorMatrix  type="matrix" values="1 0 0 0 0  0 1 0 0 0  0 0 1 0 0  0 0 0 1 0"/>
	</filter>
</defs>
<mask maskUnits="userSpaceOnUse" id="mask19970">
	
		<path id="path19972" sodipodi:ry="4.3089318" sodipodi:rx="4.3089318" sodipodi:cx="-6.7838054" sodipodi:type="arc" sodipodi:cy="9.7465248" fill="#FFFFFF" filter="url(#Adobe_OpacityMaskFilter)" stroke="#FFFFFF" stroke-width="0.5" d="
		M12.725,1041.862c0,2.872-2.328,5.199-5.199,5.199c-2.872,0-5.199-2.327-5.199-5.199c0-2.871,2.328-5.198,5.199-5.198
		C10.396,1036.664,12.725,1038.991,12.725,1041.862z"/>
</mask>
<g id="g19963" mask="url(#mask19970)">
	
		<g id="layer1-0-8-7" transform="matrix(0.56502437,0,0,0.56502437,7.4012139,454.22542)" inkscape:label="Layer 1" filter="url(#filter20746)">
		<g id="g8159-2-9-9_1_" transform="translate(-8.2201167,-12.904699)">
			
				<path id="path10796-2-6-0-3-1-0_1_" sodipodi:ry="10.625" sodipodi:rx="10.625" sodipodi:cx="388.125" sodipodi:type="arc" sodipodi:cy="468.23718" fill="#FFFFFF" stroke="#FFFFFF" stroke-width="5.6816" d="
				M22.972-776.878c0,3.656-2.964,6.619-6.62,6.619c-3.657,0-6.62-2.962-6.62-6.619c0-3.656,2.962-6.62,6.62-6.62
				C20.008-783.498,22.972-780.535,22.972-776.878z"/>
			
				<path id="path8117-2-7-8_1_" inkscape:connector-curvature="0" sodipodi:nodetypes="cccc" fill="#FFFFFF" stroke="#FFFFFF" stroke-width="3.5397" d="
				M14.04-781.942l6.063,5.188l-6.001,5.063L14.04-781.942z"/>
			
				<path id="path10796-2-6-0-5-3-5_1_" sodipodi:ry="10.625" sodipodi:rx="10.625" sodipodi:cx="388.125" sodipodi:type="arc" sodipodi:cy="468.23718" fill="#FFFFFF" stroke="#FFFFFF" stroke-width="5.6816" stroke-linecap="round" stroke-linejoin="round" d="
				M22.972-776.878c0,3.656-2.964,6.619-6.62,6.619c-3.657,0-6.62-2.962-6.62-6.619c0-3.656,2.962-6.62,6.62-6.62
				C20.008-783.498,22.972-780.535,22.972-776.878z"/>
		</g>
	</g>
</g>
<linearGradient id="path4920_1_" gradientUnits="userSpaceOnUse" x1="306.5107" y1="-644.9014" x2="305.0107" y2="-646.3701" gradientTransform="matrix(1 0 0 1 -291 659.6523)">
	<stop  offset="0" style="stop-color:#0D5C9A"/>
	<stop  offset="1" style="stop-color:#4077A7"/>
</linearGradient>
<path id="path4920" inkscape:connector-curvature="0" sodipodi:nodetypes="cccc" fill="url(#path4920_1_)" d="M11.75,15.29H16
	v-4.281L11.75,15.29z"/>
</svg>
