<?xml version="1.0" encoding="utf-8"?>
<!-- Generator: Adobe Illustrator 16.0.4, SVG Export Plug-In . SVG Version: 6.00 Build 0)  -->
<!DOCTYPE svg PUBLIC "-//W3C//DTD SVG 1.1//EN" "http://www.w3.org/Graphics/SVG/1.1/DTD/svg11.dtd">
<svg version="1.1"
	 id="svg2" xmlns:dc="http://purl.org/dc/elements/1.1/" xmlns:cc="http://creativecommons.org/ns#" xmlns:rdf="http://www.w3.org/1999/02/22-rdf-syntax-ns#" xmlns:svg="http://www.w3.org/2000/svg" xmlns:sodipodi="http://sodipodi.sourceforge.net/DTD/sodipodi-0.dtd" xmlns:inkscape="http://www.inkscape.org/namespaces/inkscape" sodipodi:docname="delete_config.svg" inkscape:version="0.48.0 r9654"
	 xmlns="http://www.w3.org/2000/svg" xmlns:xlink="http://www.w3.org/1999/xlink" x="0px" y="0px" width="16px" height="16px"
	 viewBox="0 0 16 16" enable-background="new 0 0 16 16" xml:space="preserve">
<sodipodi:namedview  showguides="true" showgrid="false" inkscape:cy="-0.10638011" inkscape:cx="-16.40091" inkscape:zoom="7.9999996" borderopacity="1.0" bordercolor="#666666" pagecolor="#ffffff" id="base" inkscape:snap-global="false" inkscape:guide-bbox="true" inkscape:window-maximized="0" inkscape:window-y="572" inkscape:window-x="200" inkscape:window-height="814" inkscape:window-width="1241" inkscape:pageshadow="2" inkscape:current-layer="layer1" inkscape:pageopacity="0.0" inkscape:document-units="px">
	<inkscape:grid  type="xygrid" id="grid3999"></inkscape:grid>
</sodipodi:namedview>
<g id="layer1" transform="translate(0,-1036.3622)" inkscape:label="Layer 1" inkscape:groupmode="layer">
	
		<linearGradient id="rect4043_1_" gradientUnits="userSpaceOnUse" x1="8.627" y1="2.3153" x2="8.627" y2="14.7805" gradientTransform="matrix(1 0 0 -1 0 1053.3621)">
		<stop  offset="0" style="stop-color:#DF2C33"/>
		<stop  offset="1" style="stop-color:#F5817D"/>
	</linearGradient>
	
		<linearGradient id="rect4043_2_" gradientUnits="userSpaceOnUse" x1="8.627" y1="2.6234" x2="8.627" y2="15.6532" gradientTransform="matrix(1 0 0 -1 0 1053.3621)">
		<stop  offset="0" style="stop-color:#C51325"/>
		<stop  offset="1" style="stop-color:#CA5D49"/>
	</linearGradient>
	
		<path id="rect4043" sodipodi:nodetypes="sccccccccssccsccsccss" inkscape:connector-curvature="0" fill="url(#rect4043_1_)" stroke="url(#rect4043_2_)" stroke-width="0.9806" stroke-linecap="round" d="
		M13.42,1038.655c-0.469-0.468-1.223-0.468-1.691,0l-3.112,3.113l-3.113-3.113c-0.468-0.468-1.222-0.468-1.69,0l-0.86,0.86
		c-0.468,0.468-0.468,1.222,0,1.69l3.112,3.113l-3.112,3.112c-0.468,0.469-0.468,1.223,0,1.69l0.86,0.86
		c0.468,0.468,1.222,0.468,1.69,0l3.113-3.113l3.135,3.135c0.468,0.469,1.222,0.469,1.69,0l0.859-0.859
		c0.469-0.469,0.464-1.218,0-1.691l-3.135-3.134l3.113-3.113c0.469-0.468,0.469-1.222,0-1.69L13.42,1038.655z"/>
</g>
</svg>
